<svg width="40" height="40" viewBox="0 0 40 40" fill="none" xmlns="http://www.w3.org/2000/svg">
<g clip-path="url(#clip0)">
<path d="M20 0.833374C8.95 0.833374 0 9.63338 0 20.4867C0 29.1717 5.73 36.5367 13.675 39.1334C14.675 39.3184 15.0417 38.71 15.0417 38.1884C15.0417 37.7217 15.025 36.485 15.0167 34.8467C9.45333 36.0317 8.28 32.21 8.28 32.21C7.37 29.9417 6.055 29.335 6.055 29.335C4.24333 28.1167 6.195 28.1417 6.195 28.1417C8.20333 28.2784 9.25833 30.1667 9.25833 30.1667C11.0417 33.1717 13.94 32.3034 15.0833 31.8017C15.2633 30.53 15.7783 29.665 16.35 29.1734C11.9083 28.6817 7.24 26.9917 7.24 19.4617C7.24 17.3167 8.015 15.5634 9.29833 14.1884C9.07333 13.6917 8.39833 11.6934 9.47333 8.98671C9.47333 8.98671 11.1483 8.46004 14.9733 11.0017C16.5733 10.565 18.2733 10.3484 19.9733 10.3384C21.6733 10.3484 23.3733 10.565 24.9733 11.0017C28.7733 8.46004 30.4483 8.98671 30.4483 8.98671C31.5233 11.6934 30.8483 13.6917 30.6483 14.1884C31.9233 15.5634 32.6983 17.3167 32.6983 19.4617C32.6983 27.0117 28.0233 28.6734 23.5733 29.1567C24.2733 29.7467 24.9233 30.9517 24.9233 32.7934C24.9233 35.4234 24.8983 37.5367 24.8983 38.175C24.8983 38.69 25.2483 39.305 26.2733 39.1084C34.275 36.5284 40 29.1584 40 20.4867C40 9.63338 31.045 0.833374 20 0.833374Z" fill="#B3B9FF"/>
</g>
<defs>
<clipPath id="clip0">
<rect width="40" height="40" fill="white"/>
</clipPath>
</defs>
</svg>